<svg xmlns="http://www.w3.org/2000/svg" width="20" height="20" viewBox="0 0 20 20" fill="none">
  <path d="M17.9163 16.6769H18.4163V16.6769L17.9163 16.6769ZM17.9154 3.32314H17.4154V3.32317L17.9154 3.32314ZM15.1319 10.5011C15.4081 10.5011 15.6319 10.2772 15.6319 10.0011C15.6319 9.72492 15.4081 9.50106 15.1319 9.50106V10.0011V10.5011ZM13.0794 10.0011V9.50106C12.8642 9.50106 12.6731 9.63878 12.6051 9.84295L13.0794 10.0011ZM11.54 14.6192L11.0657 14.7773C11.1338 14.9815 11.3248 15.1192 11.54 15.1192C11.7553 15.1192 11.9463 14.9815 12.0144 14.7773L11.54 14.6192ZM8.46126 5.38291L8.93561 5.22479C8.86755 5.02062 8.67648 4.88291 8.46126 4.88291C8.24605 4.88291 8.05498 5.02062 7.98692 5.22479L8.46126 5.38291ZM6.92188 10.0011V10.5011C7.13709 10.5011 7.32816 10.3633 7.39622 10.1592L6.92188 10.0011ZM4.86936 9.50106C4.59322 9.50106 4.36936 9.72492 4.36936 10.0011C4.36936 10.2772 4.59322 10.5011 4.86936 10.5011V10.0011V9.50106ZM17.9163 16.6769H17.4163C17.4163 17.0853 17.085 17.4167 16.6766 17.4167V17.9167V18.4167C17.6372 18.4167 18.4163 17.6376 18.4163 16.6769H17.9163ZM16.6766 17.9167V17.4167H3.32277V17.9167V18.4167H16.6766V17.9167ZM3.32277 17.9167V17.4167C2.91439 17.4167 2.58301 17.0853 2.58301 16.6769H2.08301H1.58301C1.58301 17.6376 2.3621 18.4167 3.32277 18.4167V17.9167ZM2.08301 16.6769H2.58301V3.32314H2.08301H1.58301V16.6769H2.08301ZM2.08301 3.32314H2.58301C2.58301 2.91475 2.91439 2.58337 3.32277 2.58337V2.08337V1.58337C2.3621 1.58337 1.58301 2.36247 1.58301 3.32314H2.08301ZM3.32277 2.08337V2.58337H16.6756V2.08337V1.58337H3.32277V2.08337ZM16.6756 2.08337V2.58337C17.084 2.58337 17.4154 2.91475 17.4154 3.32314H17.9154H18.4154C18.4154 2.36247 17.6363 1.58337 16.6756 1.58337V2.08337ZM17.9154 3.32314L17.4154 3.32317L17.4163 16.677L17.9163 16.6769L18.4163 16.6769L18.4154 3.3231L17.9154 3.32314ZM15.1319 10.0011V9.50106H13.0794V10.0011V10.5011H15.1319V10.0011ZM13.0794 10.0011L12.6051 9.84295L11.0657 14.4611L11.54 14.6192L12.0144 14.7773L13.5538 10.1592L13.0794 10.0011ZM11.54 14.6192L12.0144 14.4611L8.93561 5.22479L8.46126 5.38291L7.98692 5.54102L11.0657 14.7773L11.54 14.6192ZM8.46126 5.38291L7.98692 5.22479L6.44754 9.84295L6.92188 10.0011L7.39622 10.1592L8.93561 5.54102L8.46126 5.38291ZM6.92188 10.0011V9.50106H4.86936V10.0011V10.5011H6.92188V10.0011Z" fill="#272D2B"/>
</svg>