<svg xmlns="http://www.w3.org/2000/svg" width="20" height="20" viewBox="0 0 20 20" fill="none">
  <path d="M6.9594 18.31V18.81L6.96097 18.81L6.9594 18.31ZM7.9978 18.042L7.77879 17.5925C7.7715 17.5961 7.7643 17.5998 7.7572 17.6037L7.9978 18.042ZM9.97241 17.5813L9.97493 17.0813L9.96986 17.0813L9.97241 17.5813ZM12.0178 18.0518L12.2453 17.6064L12.2341 17.601L12.0178 18.0518ZM15.1236 16.4044L15.5348 16.6889L15.5348 16.6889L15.1236 16.4044ZM16.2463 8.13664L15.8096 8.38035L15.813 8.3862L16.2463 8.13664ZM13.2261 6.29564L13.2427 5.79591L13.2409 5.79586L13.2261 6.29564ZM11.6889 6.70255L11.8722 7.16775C11.8828 7.16355 11.8933 7.15898 11.9037 7.15406L11.6889 6.70255ZM10.214 7.09335L10.1744 7.59178C10.1936 7.5933 10.2128 7.59372 10.2321 7.59302L10.214 7.09335ZM8.77847 6.70703L8.56015 7.15686L8.56257 7.15802L8.77847 6.70703ZM6.7563 6.24703L6.7504 5.74695L6.73974 5.7473L6.7563 6.24703ZM4.87573 16.3843L4.46454 16.6688L4.46459 16.6689L4.87573 16.3843ZM3.75308 8.11659L4.18638 8.36617L4.18967 8.36027L3.75308 8.11659ZM7.65076 1.66663L7.78172 1.18408C7.5453 1.11992 7.29721 1.2365 7.19571 1.45945L7.65076 1.66663ZM10.1813 6.75983L10.0194 7.2329C10.1473 7.27667 10.2875 7.26678 10.408 7.20547C10.5285 7.14417 10.619 7.03668 10.6589 6.90751L10.1813 6.75983ZM6.9594 18.31L6.96097 18.81C7.40764 18.8086 7.84684 18.6953 8.2384 18.4803L7.9978 18.042L7.7572 17.6037C7.51217 17.7382 7.23734 17.8092 6.95782 17.81L6.9594 18.31ZM7.9978 18.042L8.2168 18.4915C8.76465 18.2246 9.36554 18.0844 9.97495 18.0813L9.97241 17.5813L9.96986 17.0813C9.21039 17.0852 8.46154 17.2599 7.77879 17.5925L7.9978 18.042ZM9.97241 17.5813L9.96988 18.0813C10.6041 18.0845 11.2297 18.2284 11.8016 18.5027L12.0178 18.0518L12.2341 17.601C11.5287 17.2627 10.7572 17.0852 9.97493 17.0813L9.97241 17.5813ZM13.0419 18.3333V18.8333C13.3577 18.8333 13.6417 18.7117 13.8766 18.5613C14.1133 18.4097 14.3324 18.2085 14.5281 17.9989C14.918 17.5815 15.2723 17.0681 15.5348 16.6889L15.1236 16.4044L14.7125 16.1198C14.442 16.5106 14.1286 16.9617 13.7974 17.3163C13.6326 17.4927 13.4778 17.6292 13.3374 17.7191C13.1953 17.81 13.0992 17.8333 13.0419 17.8333V18.3333ZM15.1236 16.4044L15.5348 16.6889C16.2417 15.6671 16.909 14.1607 17.2159 12.581C17.5216 11.0078 17.484 9.28382 16.6795 7.88709L16.2463 8.13664L15.813 8.3862C16.4489 9.49023 16.5167 10.9365 16.2343 12.3903C15.9531 13.8375 15.3388 15.2145 14.7124 16.1199L15.1236 16.4044ZM10.214 7.09335L10.2536 6.59492C9.8166 6.5602 9.38975 6.44532 8.99436 6.25604L8.77847 6.70703L8.56257 7.15802C9.06866 7.40029 9.61503 7.54733 10.1744 7.59178L10.214 7.09335ZM8.77847 6.70703L8.99678 6.25721C8.29497 5.9166 7.53793 5.73776 6.7504 5.74706L6.7563 6.24703L6.76221 6.74699C7.3871 6.73961 7.9912 6.88072 8.56015 7.15685L8.77847 6.70703ZM6.9594 18.31V17.81C6.90168 17.81 6.80519 17.7867 6.66288 17.6959C6.52234 17.6062 6.3673 17.47 6.20237 17.294C5.87086 16.9403 5.5569 16.49 5.28686 16.0998L4.87573 16.3843L4.46459 16.6689C4.72742 17.0486 5.0822 17.5612 5.47276 17.9778C5.66885 18.1871 5.88818 18.3878 6.12503 18.5389C6.3601 18.6889 6.64401 18.81 6.9594 18.81V18.31ZM4.87573 16.3843L5.28691 16.0999C4.66052 15.1945 4.04626 13.8174 3.76508 12.3702C3.48263 10.9165 3.55044 9.47017 4.18634 8.36614L3.75308 8.11659L3.31981 7.86703C2.51531 9.26376 2.47779 10.9878 2.78344 12.5609C3.09037 14.1406 3.75764 15.6471 4.46454 16.6688L4.87573 16.3843ZM10.1813 6.75983L10.6589 6.90751C11.4143 4.46415 10.3214 1.8733 7.78172 1.18408L7.65076 1.66663L7.51981 2.14917C9.41334 2.66304 10.3241 4.60504 9.70356 6.61215L10.1813 6.75983ZM7.65076 1.66663L7.19571 1.45945C6.1547 3.74601 7.61469 6.41008 10.0194 7.2329L10.1813 6.75983L10.3431 6.28676C8.38091 5.61534 7.3579 3.51661 8.10582 1.8738L7.65076 1.66663ZM11.6889 6.70255L11.5056 6.23735C11.0164 6.43009 10.6202 6.57831 10.1959 6.59368L10.214 7.09335L10.2321 7.59302C10.853 7.57054 11.403 7.3526 11.8722 7.16775L11.6889 6.70255ZM3.75308 8.11659L4.18967 8.36027C4.70413 7.43856 5.73029 6.78132 6.77287 6.74676L6.7563 6.24703L6.73974 5.7473C5.32499 5.7942 3.99094 6.66452 3.31648 7.8729L3.75308 8.11659ZM16.2463 8.13664L16.6829 7.89296C15.9888 6.64943 14.666 5.84309 13.2427 5.79591L13.2261 6.29564L13.2095 6.79536C14.2824 6.83093 15.2865 7.44296 15.8097 8.38033L16.2463 8.13664ZM13.2261 6.29564L13.2409 5.79586C12.6085 5.77709 11.9447 6.02716 11.4741 6.25104L11.6889 6.70255L11.9037 7.15406C12.3391 6.94693 12.8246 6.78395 13.2113 6.79542L13.2261 6.29564ZM12.0178 18.0518L11.7905 18.4972C12.1351 18.6731 12.5858 18.8333 13.0419 18.8333V18.3333V17.8333C12.8028 17.8333 12.5131 17.7433 12.2452 17.6065L12.0178 18.0518Z" fill="#272D2B"/>
</svg>